PathFileType	4	(X/Y/Z)	Run_400 01
DataRate	CameraRate	NumFrames	NumMarkers	Units	OrigDataRate	OrigDataStartFrame	OrigNumFrames
120	120	8	42	mm	120	435	128
Frame#	Time	LASI			RASI			LPSI			RPSI			RTH1			RTH2			RTH3			LTH1			LTH2			LTH3			RTB1			RTB2			RTB3			LTB1			LTB2			LTB3			RCAL			RTOE			RMT5			LCAL			LTOE			LMT5			LACR			RACR			CLAV			C7			RUA1			RUA2			RUA3			RLEL			RMEL			LUA1			LUA2			LUA3			LLEL			LMEL			RFAsuperior			RFAradius			RFAulna			LFAsuperior			LFAradius			LFAulna		
		X1	Y1	Z1	X2	Y2	Z2	X3	Y3	Z3	X4	Y4	Z4	X5	Y5	Z5	X6	Y6	Z6	X7	Y7	Z7	X8	Y8	Z8	X9	Y9	Z9	X10	Y10	Z10	X11	Y11	Z11	X12	Y12	Z12	X13	Y13	Z13	X14	Y14	Z14	X15	Y15	Z15	X16	Y16	Z16	X17	Y17	Z17	X18	Y18	Z18	X19	Y19	Z19	X20	Y20	Z20	X21	Y21	Z21	X22	Y22	Z22	X23	Y23	Z23	X24	Y24	Z24	X25	Y25	Z25	X26	Y26	Z26	X27	Y27	Z27	X28	Y28	Z28	X29	Y29	Z29	X30	Y30	Z30	X31	Y31	Z31	X32	Y32	Z32	X33	Y33	Z33	X34	Y34	Z34	X35	Y35	Z35	X36	Y36	Z36	X37	Y37	Z37	X38	Y38	Z38	X39	Y39	Z39	X40	Y40	Z40	X41	Y41	Z41	X42	Y42	Z42	

435	  3.625000	708.733980	1038.361141	-495.584964	697.787195	1028.972118	-258.599893	546.096552	1072.693082	-435.846661	541.811386	1078.309948	-346.393654	592.960189	849.420511	-224.709666	597.029296	714.831239	-248.899049	468.972309	639.944727	-252.910521	711.491640	901.459547	-549.612836	812.604530	824.140808	-532.405100	805.926813	670.770036	-516.660766	343.637208	467.185774	-312.030630	262.671972	484.380000	-265.198788	166.568670	420.275305	-331.062754	916.679881	458.185730	-437.062637	881.747221	346.579151	-485.354497	901.423081	268.796698	-409.734896	 21.703954	488.831926	-351.458075	 27.099239	270.323880	-354.651059	-13.282619	301.477959	-271.256224	803.373770	126.220771	-406.381854	1016.760754	170.399381	-396.390745	999.425754	130.821194	-480.362786	647.638368	1500.991543	-560.639050	728.188452	1485.643617	-201.468807	780.562935	1453.489722	-382.605897	649.428743	1537.710605	-372.207053	733.762972	1376.814787	-134.674225	760.959002	1311.383684	-138.719639	680.963487	1290.941993	-69.778032	726.563468	1213.072461	-58.214263	647.961779	1179.958221	-96.365097	591.246917	1475.028034	-612.195552	514.508987	1441.647257	-593.611452	534.366408	1415.065127	-664.838670	456.436603	1344.214937	-714.945772	412.334008	1309.051269	-644.112956	782.629247	1229.588210	-121.047593	831.617724	1271.868117	-274.548138	841.924302	1206.399684	-271.224816	521.456746	1319.307822	-714.529123	662.845819	1245.441474	-637.617287	636.918725	1194.204560	-667.598400	
436	  3.633333	707.706424	1036.452991	-495.539638	698.056735	1025.777662	-259.345630	544.792332	1067.355096	-434.129505	542.373393	1074.163101	-345.090864	598.728845	844.305501	-224.766680	604.498512	710.875905	-250.039707	479.069404	632.924689	-252.270873	709.805374	897.217257	-550.752344	809.370852	816.129311	-535.071908	798.334593	663.054416	-516.582337	347.334359	468.234157	-312.843177	268.653883	491.509317	-265.177910	165.960922	437.258990	-329.813049	912.990472	451.657756	-437.491041	879.302607	339.424070	-484.695573	902.675520	262.452002	-409.072379	 27.844103	518.188076	-349.937468	 15.133502	299.564697	-350.451620	-20.916117	334.724251	-267.816815	808.745640	116.707966	-404.854304	1020.603357	168.154433	-395.085274	1004.598776	126.524754	-478.822583	649.422920	1497.107056	-562.888230	728.844253	1483.931224	-203.056674	780.594883	1450.025790	-383.300275	649.660470	1535.454253	-374.402371	732.247826	1376.120679	-135.106298	758.777315	1310.335154	-138.321546	677.849862	1291.629932	-69.693704	721.665487	1212.347438	-57.271585	642.154360	1181.380212	-95.163001	593.461592	1470.758798	-615.069157	516.789789	1435.982698	-596.501561	537.094775	1410.154931	-667.304948	460.536957	1338.691811	-718.349562	416.589793	1301.841430	-648.444360	778.204499	1225.748161	-120.375364	829.123684	1263.232949	-274.627714	837.100928	1197.452516	-269.956329	526.377123	1315.244373	-717.744617	668.184230	1244.823943	-639.602305	644.129257	1193.364967	-670.454173	
437	  3.641667	706.748937	1033.811365	-495.592780	698.317447	1022.666046	-259.705460	543.241810	1061.090374	-432.170756	542.885358	1068.765644	-343.442184	604.265326	838.982770	-224.698301	611.892941	706.535413	-250.596728	489.479092	625.291203	-251.261068	708.416273	892.589420	-552.201646	806.270674	808.268316	-537.753380	791.967648	656.009115	-516.302861	352.351808	469.049748	-313.239685	276.525286	497.683574	-264.768882	168.472572	453.717509	-328.398118	908.256802	445.043644	-437.811233	874.853606	332.618953	-484.416059	900.865539	256.097740	-408.825692	 38.555913	546.055326	-348.522986	  6.802857	328.573302	-345.114128	-23.762405	367.850193	-264.198617	809.812577	107.792592	-404.073349	1020.508847	164.684265	-394.234213	1005.432769	121.321853	-477.927876	651.353575	1492.174835	-565.162769	728.926321	1481.464300	-204.735420	780.598212	1445.672904	-383.830034	649.903022	1532.406662	-376.858064	730.129037	1374.634916	-135.781054	755.990568	1308.505760	-138.140767	674.007457	1291.591517	-69.755139	715.820114	1210.927998	-56.337403	635.476932	1182.134693	-94.177640	595.947043	1465.302707	-618.289339	519.159610	1429.085945	-599.841425	540.261979	1403.969805	-670.140245	465.217866	1331.864376	-722.351085	421.373579	1293.249567	-653.453984	772.997192	1220.962039	-119.401860	826.637051	1253.018993	-274.064288	831.915265	1187.038224	-267.847374	531.990608	1309.994055	-721.544300	674.209840	1243.387680	-641.800225	652.079907	1191.713098	-673.537375	
438	  3.650000	705.832414	1030.381257	-496.028317	698.731740	1019.357156	-259.563552	541.630132	1054.156529	-429.986246	543.156520	1062.184679	-341.418956	609.443868	833.431376	-224.553981	619.535520	701.591143	-250.943745	500.273507	617.043907	-249.829612	706.746806	887.395575	-553.531768	802.986083	800.561501	-539.601067	786.762235	649.439388	-515.960457	358.703986	469.719632	-313.244767	285.984403	502.963269	-264.010106	174.174760	469.259411	-327.095820	902.183563	438.105940	-437.947858	868.754826	325.745497	-484.552056	896.520388	249.242271	-409.048701	 53.352451	571.610682	-347.255917	  2.722515	356.873202	-339.687780	-21.981324	399.840473	-260.530862	806.878887	 99.889688	-403.706803	1017.165802	158.692464	-394.030314	1001.987837	113.974067	-477.531973	653.431810	1486.231685	-567.454377	728.353826	1478.206870	-206.344991	780.602908	1440.495597	-384.192216	650.199044	1528.571480	-379.524749	727.344448	1372.280369	-136.621184	752.470469	1305.761494	-138.090897	669.460723	1290.760579	-69.957465	709.082752	1208.808707	-55.441171	627.957724	1182.190487	-93.382977	598.650361	1458.627666	-621.759978	521.588250	1420.960972	-603.708264	543.854502	1396.544814	-673.487397	470.513030	1323.791987	-726.963296	426.696953	1283.359952	-659.078334	767.061042	1215.268643	-118.049915	824.109157	1241.258768	-272.720156	826.366568	1175.246590	-264.636906	538.219494	1303.636091	-725.916285	680.987318	1241.317416	-644.227721	660.698515	1189.285002	-676.686425	
439	  3.658333	704.892360	1026.203860	-496.933126	699.448192	1015.461275	-259.086028	540.143986	1046.683844	-427.648495	543.013369	1054.592953	-339.127101	614.316336	827.520591	-224.356044	627.706429	695.996076	-251.156217	511.438613	608.269735	-248.024871	704.577189	881.456900	-554.191872	799.322342	793.077941	-539.838274	782.026468	642.733835	-515.654844	366.524156	470.036943	-312.876639	296.856234	507.395158	-262.905125	182.981615	483.475867	-326.058608	894.731198	430.426915	-437.959748	861.316301	318.221748	-484.955352	890.064098	241.322230	-409.642945	 71.522092	594.308014	-346.155001	  3.506002	383.995335	-335.406256	-15.985637	429.764631	-256.972631	799.721324	 94.088592	-403.297038	1010.686979	148.493433	-394.273528	993.928051	103.358316	-477.200162	655.639704	1479.408252	-569.731552	727.140260	1474.151225	-207.747762	780.641792	1434.566969	-384.379570	650.506036	1523.907333	-382.264990	723.866226	1369.058018	-137.486689	748.112190	1302.027759	-138.063278	664.216328	1289.154270	-70.293797	701.531287	1206.055877	-54.554181	619.783841	1181.609380	-92.799678	601.531914	1450.795604	-625.380240	524.139974	1411.695636	-608.116430	547.884029	1387.968903	-677.408530	476.482610	1314.576418	-732.121370	432.597883	1272.302058	-665.175630	760.450850	1208.730673	-116.254821	821.434284	1228.042385	-270.513603	820.459842	1162.220601	-260.151394	545.022558	1296.311578	-730.741531	688.448380	1238.800683	-646.795954	669.957151	1186.156595	-679.737148	
440	  3.666667	703.873761	1021.292962	-498.146668	700.498618	1010.767750	-258.503503	538.835026	1038.686200	-425.306752	542.344613	1046.229119	-336.772202	619.103578	821.101197	-224.058527	636.399941	689.840398	-250.973738	522.788022	599.147565	-245.938185	702.096692	874.641538	-553.801138	795.349024	785.898896	-538.121570	776.958613	635.305176	-515.427058	375.944134	469.608087	-311.954084	309.086274	510.985636	-261.388389	194.652116	496.041163	-325.286191	886.276744	421.612736	-437.910529	852.597001	309.561703	-485.093847	881.333292	232.065730	-410.081529	 92.235358	613.967976	-345.267567	  9.293499	409.361541	-332.752625	 -6.164391	456.948000	-253.646653	787.472941	 91.333722	-402.381456	1000.242356	133.399522	-394.331675	980.567995	 89.837988	-476.529712	657.936027	1471.896468	-571.940526	725.373854	1469.349464	-208.894380	780.745952	1427.966468	-384.412799	650.738121	1518.328835	-384.869072	719.715341	1365.040154	-138.259976	742.864726	1297.334336	-138.001754	658.270198	1286.880351	-70.754391	693.260199	1202.807250	-53.601307	611.211173	1180.520967	-92.471268	604.576058	1441.951084	-629.062522	526.927571	1401.458918	-613.005840	552.400064	1378.339344	-681.815134	483.160907	1304.330714	-737.671127	439.090911	1260.219302	-671.554240	753.210606	1201.459393	-113.994730	818.455289	1213.520016	-267.425668	814.140751	1148.160565	-254.449797	552.392003	1288.176733	-735.823200	696.430632	1235.952965	-649.335523	679.883099	1182.441154	-682.586070	
441	  3.675000	702.716640	1015.569956	-499.376751	701.786189	1005.298224	-257.951786	537.504989	1030.132154	-423.166582	541.139629	1037.276587	-334.586352	624.038798	814.088877	-223.621288	645.316215	683.277301	-250.037258	534.074236	589.865182	-243.651413	699.614716	867.011221	-552.426867	791.350395	779.011009	-534.907469	771.373041	627.124050	-515.383127	386.994969	468.116441	-310.120638	322.705897	513.707416	-259.371391	208.872834	506.765146	-324.684832	877.390165	411.638789	-437.670623	842.309421	299.826427	-484.205028	869.419623	221.903494	-409.442083	114.704091	630.683638	-344.661191	 19.557514	432.289552	-331.135275	  7.159726	481.005869	-250.577533	769.192175	 91.564090	-400.694439	984.425462	115.138421	-393.415693	961.343407	 75.927622	-475.430544	660.281678	1463.915198	-574.028530	723.177686	1463.924224	-209.829036	780.945216	1420.785836	-384.350151	650.805469	1511.759582	-387.141858	714.942185	1360.349171	-138.895815	736.718413	1291.831260	-137.920103	651.600376	1284.110875	-71.337072	684.337456	1199.232063	-52.527876	602.405909	1179.062803	-92.433197	607.799523	1432.275879	-632.723047	530.036852	1390.456354	-618.256068	557.461523	1367.755959	-686.480654	490.552884	1293.165271	-743.403666	446.182368	1247.232468	-678.016393	745.359538	1193.620854	-111.292476	815.020098	1197.881855	-263.464145	807.288137	1133.289890	-247.747645	560.345981	1279.346348	-740.943741	704.797095	1232.773006	-651.661726	690.526338	1178.267620	-685.199473	
442	  3.683333	701.337952	1008.955533	-500.379432	703.099201	999.159125	-257.538656	535.745812	1021.092094	-421.390850	539.442383	1027.822809	-332.731280	629.191272	806.557905	-223.100988	654.082945	676.532414	-248.178600	545.231622	580.549928	-241.213124	697.189103	859.001550	-550.674664	787.608892	772.320699	-531.511085	765.998845	618.930018	-515.791522	399.642775	465.532760	-307.117647	337.792182	515.509389	-256.831921	225.331263	515.567954	-324.109336	868.351525	401.151102	-436.908793	830.007152	289.978496	-481.889534	853.258285	212.088901	-406.984906	138.346185	644.607322	-344.342652	 33.427701	452.158281	-329.529108	 23.623364	501.749424	-247.711917	744.810874	 93.642193	-398.308959	962.317977	 97.655774	-391.096696	936.434023	 65.140940	-474.096523	662.652919	1455.695998	-575.967168	720.668625	1458.058382	-210.632238	781.285643	1413.135199	-384.234861	650.643133	1504.256957	-389.056447	709.598420	1355.146103	-139.412364	729.661584	1285.765539	-137.864879	644.159303	1281.047451	-72.062492	674.764224	1195.493158	-51.363025	593.373426	1177.327533	-92.710843	611.237797	1421.942666	-636.257509	533.478799	1378.879755	-623.717443	563.082809	1356.363252	-691.137063	498.671702	1281.192573	-749.106585	453.962184	1233.422788	-684.400338	736.875979	1185.415244	-108.194250	811.034671	1181.343556	-258.614825	799.764622	1117.815348	-240.235220	568.934544	1269.885172	-745.902208	713.504396	1229.157623	-653.618104	701.903904	1173.751488	-687.551196	
